<svg width="16" height="16" viewBox="0 0 16 16" fill="none" xmlns="http://www.w3.org/2000/svg">
<path d="M7.87901 7.70728C9.14812 7.70728 10.2471 7.32751 11.145 6.57825C12.043 5.8291 12.4981 4.91248 12.4981 3.85352C12.4981 2.79492 12.043 1.87817 11.1448 1.12878C10.2468 0.379761 9.14798 0 7.87901 0C6.60974 0 5.51106 0.379761 4.61313 1.12891C3.71521 1.87805 3.25989 2.7948 3.25989 3.85352C3.25989 4.91248 3.71521 5.82922 4.61329 6.57837C5.51135 7.32739 6.61017 7.70728 7.87901 7.70728Z" fill="black"/>
<path d="M15.9612 12.3032C15.9353 11.9915 15.8829 11.6514 15.8058 11.2922C15.7279 10.9304 15.6277 10.5884 15.5077 10.2758C15.3838 9.95264 15.2153 9.63354 15.007 9.32776C14.7907 9.01038 14.5367 8.73401 14.2517 8.50659C13.9536 8.26868 13.5888 8.07739 13.1667 7.93787C12.7463 7.79907 12.2803 7.72876 11.7818 7.72876C11.586 7.72876 11.3967 7.79578 11.031 7.99438C10.806 8.11682 10.5428 8.25842 10.249 8.41504C9.99776 8.54858 9.65743 8.67371 9.23706 8.78699C8.82695 8.89771 8.41054 8.95386 7.99954 8.95386C7.58856 8.95386 7.17229 8.89771 6.76174 8.78699C6.34182 8.67383 6.00149 8.54871 5.75056 8.41516C5.45954 8.26001 5.19619 8.11841 4.96778 7.99426C4.60259 7.79565 4.4131 7.72864 4.21734 7.72864C3.71871 7.72864 3.25285 7.79907 2.83248 7.93799C2.41081 8.07727 2.04576 8.26855 1.74743 8.50671C1.46254 8.73425 1.20841 9.0105 0.992441 9.32776C0.784244 9.63354 0.615685 9.95251 0.491618 10.2759C0.371782 10.5885 0.271555 10.9304 0.193718 11.2922C0.116612 11.6509 0.0642331 11.9911 0.0383313 12.3036C0.012873 12.6097 0 12.9275 0 13.2484C0 14.0836 0.318229 14.7598 0.945768 15.2584C1.56555 15.7505 2.38565 16.0001 3.38292 16.0001H12.6171C13.6143 16.0001 14.4341 15.7506 15.0541 15.2584C15.6818 14.7601 16 14.0839 16 13.2483C15.9999 12.9259 15.9868 12.6079 15.9612 12.3032Z" fill="black"/>
</svg>
